<svg width="1180" height="780" viewBox="0 0 1180 780" xmlns="http://www.w3.org/2000/svg" xmlns:xlink="http://www.w3.org/1999/xlink" role="img" aria-label="Md Pranto profile banner"><defs><clipPath id="roundedCanvas"><rect x="0" y="0" width="1180" height="780" rx="28" ry="28"/></clipPath><radialGradient id="bgBase" cx="50%" cy="0%" r="120%">
        <stop offset="0%" stop-color="#F8FAFC"/>
        <stop offset="100%" stop-color="#FFFFFF"/>
    </radialGradient><linearGradient id="accentGrad" x1="0%" y1="0%" x2="100%" y2="0%">
        <stop offset="0%" stop-color="#2563EB"/><stop offset="50%" stop-color="#06B6D4"/><stop offset="100%" stop-color="#10B981"/>
        <animate attributeName="x1" values="0%;100%;0%" dur="8s" repeatCount="indefinite"/>
        <animate attributeName="x2" values="100%;200%;100%" dur="8s" repeatCount="indefinite"/>
    </linearGradient><linearGradient id="asciiGrad" x1="0%" y1="0%" x2="100%" y2="100%">
        <stop offset="0%" stop-color="#2563EB"/><stop offset="100%" stop-color="#06B6D4"/>
        <animate attributeName="x1" values="0%;100%;0%" dur="6s" repeatCount="indefinite"/>
        <animate attributeName="y1" values="0%;100%;0%" dur="9s" repeatCount="indefinite"/>
    </linearGradient><linearGradient id="borderShimmer" x1="0%" y1="0%" x2="100%" y2="0%">
        <stop offset="0%" stop-color="#E2E8F0" stop-opacity="0"/>
        <stop offset="50%" stop-color="#06B6D4" stop-opacity="0.9"/>
        <stop offset="100%" stop-color="#E2E8F0" stop-opacity="0"/>
        <animate attributeName="x1" values="-20%;120%" dur="4s" repeatCount="indefinite"/>
        <animate attributeName="x2" values="0%;140%" dur="4s" repeatCount="indefinite"/>
    </linearGradient><filter id="softGlow" x="-60%" y="-60%" width="220%" height="220%">
        <feGaussianBlur stdDeviation="4.2" result="blur"/>
        <feMerge>
            <feMergeNode in="blur"/>
            <feMergeNode in="SourceGraphic"/>
        </feMerge>
    </filter><filter id="bigBlur" x="-50%" y="-50%" width="200%" height="200%">
        <feGaussianBlur stdDeviation="55"/>
    </filter><filter id="noise">
        <feTurbulence type="fractalNoise" baseFrequency="0.85" numOctaves="2" stitchTiles="stitch" result="noise"/>
        <feColorMatrix in="noise" type="matrix"
            values="0 0 0 0 1  0 0 0 0 1  0 0 0 0 1  0 0 0 0.02 0"/>
    </filter><linearGradient id="glassPanel" x1="0%" y1="0%" x2="0%" y2="100%">
        <stop offset="0%" stop-color="#F8FAFC" stop-opacity="0.75"/>
        <stop offset="100%" stop-color="#F8FAFC" stop-opacity="0.45"/>
    </linearGradient><linearGradient id="glassReflect" x1="0%" y1="0%" x2="0%" y2="100%">
        <stop offset="0%" stop-color="#FFFFFF" stop-opacity="0.10"/>
        <stop offset="35%" stop-color="#FFFFFF" stop-opacity="0.02"/>
        <stop offset="100%" stop-color="#FFFFFF" stop-opacity="0"/>
    </linearGradient></defs><g clip-path="url(#roundedCanvas)"><rect x="0" y="0" width="1180" height="780" fill="url(#bgBase)"/><circle cx="160" cy="90" r="260" fill="#93C5FD" opacity="0.20" filter="url(#bigBlur)">
            <animate attributeName="cy" values="90;72;90" dur="9s" repeatCount="indefinite"/>
            <animate attributeName="opacity" values="0.20;0.28;0.20" dur="12s" repeatCount="indefinite"/>
        </circle><circle cx="900" cy="140" r="300" fill="#C4B5FD" opacity="0.20" filter="url(#bigBlur)">
            <animate attributeName="cy" values="140;116;140" dur="11s" repeatCount="indefinite"/>
            <animate attributeName="opacity" values="0.20;0.28;0.20" dur="14s" repeatCount="indefinite"/>
        </circle><circle cx="560" cy="520" r="320" fill="#6EE7B7" opacity="0.20" filter="url(#bigBlur)">
            <animate attributeName="cy" values="520;490;520" dur="13s" repeatCount="indefinite"/>
            <animate attributeName="opacity" values="0.20;0.28;0.20" dur="16s" repeatCount="indefinite"/>
        </circle><rect x="0" y="0" width="1180" height="780" filter="url(#noise)" opacity="0.5"/><rect x="0" y="0" width="1180" height="2" fill="#06B6D4" opacity="0.08">
        <animate attributeName="y" values="0;780;0" dur="10s" repeatCount="indefinite"/>
    </rect><g><circle cx="683" cy="174" r="1.4" fill="#06B6D4" opacity="0.23">
            <animate attributeName="cy" values="174;120;174" dur="4.2s" repeatCount="indefinite"/>
            <animate attributeName="opacity" values="0;0.23;0" dur="4.2s" repeatCount="indefinite"/>
        </circle><circle cx="138" cy="539" r="1.1" fill="#2563EB" opacity="0.22">
            <animate attributeName="cy" values="539;493;539" dur="4.4s" repeatCount="indefinite"/>
            <animate attributeName="opacity" values="0;0.22;0" dur="4.4s" repeatCount="indefinite"/>
        </circle><circle cx="205" cy="584" r="1.4" fill="#6EE7B7" opacity="0.53">
            <animate attributeName="cy" values="584;557;584" dur="8.1s" repeatCount="indefinite"/>
            <animate attributeName="opacity" values="0;0.53;0" dur="8.1s" repeatCount="indefinite"/>
        </circle><circle cx="146" cy="610" r="1.6" fill="#06B6D4" opacity="0.22">
            <animate attributeName="cy" values="610;576;610" dur="4.2s" repeatCount="indefinite"/>
            <animate attributeName="opacity" values="0;0.22;0" dur="4.2s" repeatCount="indefinite"/>
        </circle><circle cx="292" cy="316" r="1.4" fill="#2563EB" opacity="0.31">
            <animate attributeName="cy" values="316;260;316" dur="6.7s" repeatCount="indefinite"/>
            <animate attributeName="opacity" values="0;0.31;0" dur="6.7s" repeatCount="indefinite"/>
        </circle><circle cx="390" cy="125" r="1.6" fill="#6EE7B7" opacity="0.23">
            <animate attributeName="cy" values="125;82;125" dur="7.2s" repeatCount="indefinite"/>
            <animate attributeName="opacity" values="0;0.23;0" dur="7.2s" repeatCount="indefinite"/>
        </circle><circle cx="148" cy="597" r="0.9" fill="#06B6D4" opacity="0.35">
            <animate attributeName="cy" values="597;543;597" dur="5.0s" repeatCount="indefinite"/>
            <animate attributeName="opacity" values="0;0.35;0" dur="5.0s" repeatCount="indefinite"/>
        </circle><circle cx="663" cy="496" r="1.6" fill="#2563EB" opacity="0.29">
            <animate attributeName="cy" values="496;457;496" dur="6.3s" repeatCount="indefinite"/>
            <animate attributeName="opacity" values="0;0.29;0" dur="6.3s" repeatCount="indefinite"/>
        </circle><circle cx="388" cy="735" r="1.9" fill="#6EE7B7" opacity="0.38">
            <animate attributeName="cy" values="735;696;735" dur="4.4s" repeatCount="indefinite"/>
            <animate attributeName="opacity" values="0;0.38;0" dur="4.4s" repeatCount="indefinite"/>
        </circle><circle cx="723" cy="479" r="1.2" fill="#06B6D4" opacity="0.38">
            <animate attributeName="cy" values="479;452;479" dur="8.9s" repeatCount="indefinite"/>
            <animate attributeName="opacity" values="0;0.38;0" dur="8.9s" repeatCount="indefinite"/>
        </circle><circle cx="357" cy="370" r="1.0" fill="#2563EB" opacity="0.54">
            <animate attributeName="cy" values="370;348;370" dur="6.4s" repeatCount="indefinite"/>
            <animate attributeName="opacity" values="0;0.54;0" dur="6.4s" repeatCount="indefinite"/>
        </circle><circle cx="178" cy="591" r="1.6" fill="#6EE7B7" opacity="0.32">
            <animate attributeName="cy" values="591;551;591" dur="8.4s" repeatCount="indefinite"/>
            <animate attributeName="opacity" values="0;0.32;0" dur="8.4s" repeatCount="indefinite"/>
        </circle><circle cx="737" cy="628" r="1.5" fill="#06B6D4" opacity="0.49">
            <animate attributeName="cy" values="628;604;628" dur="8.0s" repeatCount="indefinite"/>
            <animate attributeName="opacity" values="0;0.49;0" dur="8.0s" repeatCount="indefinite"/>
        </circle><circle cx="572" cy="505" r="1.8" fill="#2563EB" opacity="0.43">
            <animate attributeName="cy" values="505;466;505" dur="4.3s" repeatCount="indefinite"/>
            <animate attributeName="opacity" values="0;0.43;0" dur="4.3s" repeatCount="indefinite"/>
        </circle><circle cx="932" cy="311" r="1.8" fill="#6EE7B7" opacity="0.21">
            <animate attributeName="cy" values="311;269;311" dur="8.4s" repeatCount="indefinite"/>
            <animate attributeName="opacity" values="0;0.21;0" dur="8.4s" repeatCount="indefinite"/>
        </circle><circle cx="965" cy="383" r="1.0" fill="#06B6D4" opacity="0.28">
            <animate attributeName="cy" values="383;360;383" dur="4.6s" repeatCount="indefinite"/>
            <animate attributeName="opacity" values="0;0.28;0" dur="4.6s" repeatCount="indefinite"/>
        </circle><circle cx="608" cy="152" r="1.8" fill="#2563EB" opacity="0.23">
            <animate attributeName="cy" values="152;101;152" dur="6.0s" repeatCount="indefinite"/>
            <animate attributeName="opacity" values="0;0.23;0" dur="6.0s" repeatCount="indefinite"/>
        </circle><circle cx="939" cy="431" r="1.6" fill="#6EE7B7" opacity="0.5">
            <animate attributeName="cy" values="431;384;431" dur="8.4s" repeatCount="indefinite"/>
            <animate attributeName="opacity" values="0;0.5;0" dur="8.4s" repeatCount="indefinite"/>
        </circle><circle cx="590" cy="743" r="1.4" fill="#06B6D4" opacity="0.54">
            <animate attributeName="cy" values="743;699;743" dur="5.8s" repeatCount="indefinite"/>
            <animate attributeName="opacity" values="0;0.54;0" dur="5.8s" repeatCount="indefinite"/>
        </circle><circle cx="329" cy="104" r="1.0" fill="#2563EB" opacity="0.2">
            <animate attributeName="cy" values="104;70;104" dur="5.2s" repeatCount="indefinite"/>
            <animate attributeName="opacity" values="0;0.2;0" dur="5.2s" repeatCount="indefinite"/>
        </circle><circle cx="393" cy="289" r="1.2" fill="#6EE7B7" opacity="0.33">
            <animate attributeName="cy" values="289;235;289" dur="4.7s" repeatCount="indefinite"/>
            <animate attributeName="opacity" values="0;0.33;0" dur="4.7s" repeatCount="indefinite"/>
        </circle><circle cx="672" cy="148" r="1.8" fill="#06B6D4" opacity="0.43">
            <animate attributeName="cy" values="148;89;148" dur="6.6s" repeatCount="indefinite"/>
            <animate attributeName="opacity" values="0;0.43;0" dur="6.6s" repeatCount="indefinite"/>
        </circle><circle cx="130" cy="487" r="2.1" fill="#2563EB" opacity="0.34">
            <animate attributeName="cy" values="487;432;487" dur="7.9s" repeatCount="indefinite"/>
            <animate attributeName="opacity" values="0;0.34;0" dur="7.9s" repeatCount="indefinite"/>
        </circle><circle cx="837" cy="423" r="0.9" fill="#6EE7B7" opacity="0.27">
            <animate attributeName="cy" values="423;400;423" dur="7.2s" repeatCount="indefinite"/>
            <animate attributeName="opacity" values="0;0.27;0" dur="7.2s" repeatCount="indefinite"/>
        </circle><circle cx="447" cy="471" r="1.0" fill="#06B6D4" opacity="0.24">
            <animate attributeName="cy" values="471;448;471" dur="5.7s" repeatCount="indefinite"/>
            <animate attributeName="opacity" values="0;0.24;0" dur="5.7s" repeatCount="indefinite"/>
        </circle><circle cx="329" cy="569" r="0.9" fill="#2563EB" opacity="0.22">
            <animate attributeName="cy" values="569;548;569" dur="5.8s" repeatCount="indefinite"/>
            <animate attributeName="opacity" values="0;0.22;0" dur="5.8s" repeatCount="indefinite"/>
        </circle></g><rect x="1.5" y="1.5" width="1177" height="777" rx="27" ry="27" fill="none" stroke="#E2E8F0" stroke-opacity="0.6" stroke-width="1"/><rect x="1.5" y="1.5" width="1177" height="777" rx="27" ry="27" fill="none" stroke="url(#borderShimmer)" stroke-width="1.4"/><g><rect x="32" y="32" width="1116" height="716" rx="20" ry="20" fill="url(#glassPanel)" stroke="rgba(15,23,42,.08)" stroke-width="1"/><rect x="32" y="32" width="1116" height="250.6" rx="20" ry="20" fill="url(#glassReflect)"/><rect x="32" y="32" width="1116" height="34" rx="20" ry="20" fill="#FFFFFF" opacity="0.55"/><rect x="32" y="52" width="1116" height="14" fill="#FFFFFF" opacity="0.55"/><circle cx="56" cy="49.0" r="5.5" fill="#FF5F56" opacity="0.9"/><circle cx="74" cy="49.0" r="5.5" fill="#FFBD2E" opacity="0.9"/><circle cx="92" cy="49.0" r="5.5" fill="#27C93F" opacity="0.9"/><text x="590.0" y="53.0" text-anchor="middle" font-family="ui-monospace,Menlo,Consolas,monospace" font-size="11.5" fill="#475569">pranto@zerotwo5 — security-shell</text><text x="66" y="118" font-family="ui-monospace,Menlo,Consolas,monospace" font-size="25" fill="#475569" opacity="0">Hi 👋<animate attributeName="opacity" values="0;1" dur="0.55s" begin="0.15s" fill="freeze"/></text><text x="66" y="173" font-family="ui-monospace,Menlo,Consolas,monospace" font-size="47" font-weight="600" fill="#0F172A" opacity="0">I'm Md Pranto<animate attributeName="opacity" values="0;1" dur="0.55s" begin="0.35s" fill="freeze"/></text><text x="66" y="238" font-family="ui-monospace,Menlo,Consolas,monospace" font-size="25" fill="#475569" opacity="0">Jr. Red Team Analyst / Penetration Tester / AI Enthusiast<animate attributeName="opacity" values="0;1" dur="0.55s" begin="0.55s" fill="freeze"/></text><line x1="66" y1="284" x2="1114" y2="284" stroke="#E2E8F0" stroke-width="1" opacity="0"><animate attributeName="opacity" values="0;1" dur="0.55s" begin="0.7s" fill="freeze"/></line><g opacity="0"><animate attributeName="opacity" values="0;1" dur="0.55s" begin="0.9s" fill="freeze"/><text x="66" y="311" font-family="ui-monospace,Menlo,Consolas,monospace" font-size="21" fill="#06B6D4">›</text><text x="90" y="311" font-family="ui-monospace,Menlo,Consolas,monospace" font-size="21" fill="#475569">Current Focus:</text><text x="296" y="311" font-family="ui-monospace,Menlo,Consolas,monospace" font-size="21" fill="#0F172A">AI-Powered Security Tooling</text></g><g opacity="0"><animate attributeName="opacity" values="0;1" dur="0.55s" begin="1.06s" fill="freeze"/><text x="66" y="351" font-family="ui-monospace,Menlo,Consolas,monospace" font-size="21" fill="#06B6D4">›</text><text x="90" y="351" font-family="ui-monospace,Menlo,Consolas,monospace" font-size="21" fill="#475569">Portfolio:</text><text x="296" y="351" font-family="ui-monospace,Menlo,Consolas,monospace" font-size="21" fill="#0F172A">zerotwo5.github.io/portfolio</text></g><g opacity="0"><animate attributeName="opacity" values="0;1" dur="0.55s" begin="1.22s" fill="freeze"/><text x="66" y="391" font-family="ui-monospace,Menlo,Consolas,monospace" font-size="21" fill="#06B6D4">›</text><text x="90" y="391" font-family="ui-monospace,Menlo,Consolas,monospace" font-size="21" fill="#475569">Email:</text><text x="296" y="391" font-family="ui-monospace,Menlo,Consolas,monospace" font-size="21" fill="#0F172A">mdpranto025@gmail.com</text></g><text x="66" y="473" font-family="ui-monospace,Menlo,Consolas,monospace" font-size="21" fill="#475569" opacity="0">$ skills --list<animate attributeName="opacity" values="0;1" dur="0.55s" begin="1.5299999999999998s" fill="freeze"/></text><g opacity="0"><animate attributeName="opacity" values="0;1" dur="0.55s" begin="1.7799999999999998s" fill="freeze"/><rect x="66" y="503" width="96.19999999999999" height="39" rx="19.5" fill="#EFF4FF" stroke="rgba(37,99,235,.25)" stroke-width="1"><animate attributeName="stroke-opacity" values="0.5;1;0.5" dur="3s" begin="1.7799999999999998s" repeatCount="indefinite"/></rect><text x="114.1" y="530" text-anchor="middle" font-family="ui-monospace,Menlo,Consolas,monospace" font-size="18" fill="#0F172A">Python</text></g><g opacity="0"><animate attributeName="opacity" values="0;1" dur="0.55s" begin="1.8499999999999999s" fill="freeze"/><rect x="180.2" y="503" width="163.39999999999998" height="39" rx="19.5" fill="#EFF4FF" stroke="rgba(37,99,235,.25)" stroke-width="1"><animate attributeName="stroke-opacity" values="0.5;1;0.5" dur="4s" begin="1.8499999999999999s" repeatCount="indefinite"/></rect><text x="261.9" y="530" text-anchor="middle" font-family="ui-monospace,Menlo,Consolas,monospace" font-size="18" fill="#0F172A">Scikit-learn</text></g><g opacity="0"><animate attributeName="opacity" values="0;1" dur="0.55s" begin="1.92s" fill="freeze"/><rect x="361.59999999999997" y="503" width="107.39999999999999" height="39" rx="19.5" fill="#EFF4FF" stroke="rgba(37,99,235,.25)" stroke-width="1"><animate attributeName="stroke-opacity" values="0.5;1;0.5" dur="5s" begin="1.92s" repeatCount="indefinite"/></rect><text x="415.29999999999995" y="530" text-anchor="middle" font-family="ui-monospace,Menlo,Consolas,monospace" font-size="18" fill="#0F172A">PyTorch</text></g><g opacity="0"><animate attributeName="opacity" values="0;1" dur="0.55s" begin="1.9899999999999998s" fill="freeze"/><rect x="486.99999999999994" y="503" width="107.39999999999999" height="39" rx="19.5" fill="#EFF4FF" stroke="rgba(37,99,235,.25)" stroke-width="1"><animate attributeName="stroke-opacity" values="0.5;1;0.5" dur="3s" begin="1.9899999999999998s" repeatCount="indefinite"/></rect><text x="540.6999999999999" y="530" text-anchor="middle" font-family="ui-monospace,Menlo,Consolas,monospace" font-size="18" fill="#0F172A">FastAPI</text></g><g opacity="0"><animate attributeName="opacity" values="0;1" dur="0.55s" begin="2.0599999999999996s" fill="freeze"/><rect x="612.4" y="503" width="85.0" height="39" rx="19.5" fill="#EFF4FF" stroke="rgba(37,99,235,.25)" stroke-width="1"><animate attributeName="stroke-opacity" values="0.5;1;0.5" dur="4s" begin="2.0599999999999996s" repeatCount="indefinite"/></rect><text x="654.9" y="530" text-anchor="middle" font-family="ui-monospace,Menlo,Consolas,monospace" font-size="18" fill="#0F172A">React</text></g><g opacity="0"><animate attributeName="opacity" values="0;1" dur="0.55s" begin="2.13s" fill="freeze"/><rect x="715.4" y="503" width="141.0" height="39" rx="19.5" fill="#EFF4FF" stroke="rgba(37,99,235,.25)" stroke-width="1"><animate attributeName="stroke-opacity" values="0.5;1;0.5" dur="5s" begin="2.13s" repeatCount="indefinite"/></rect><text x="785.9" y="530" text-anchor="middle" font-family="ui-monospace,Menlo,Consolas,monospace" font-size="18" fill="#0F172A">JavaScript</text></g><g opacity="0"><animate attributeName="opacity" values="0;1" dur="0.55s" begin="2.1999999999999997s" fill="freeze"/><rect x="874.4" y="503" width="85.0" height="39" rx="19.5" fill="#EFF4FF" stroke="rgba(37,99,235,.25)" stroke-width="1"><animate attributeName="stroke-opacity" values="0.5;1;0.5" dur="3s" begin="2.1999999999999997s" repeatCount="indefinite"/></rect><text x="916.9" y="530" text-anchor="middle" font-family="ui-monospace,Menlo,Consolas,monospace" font-size="18" fill="#0F172A">Linux</text></g><g opacity="0"><animate attributeName="opacity" values="0;1" dur="0.55s" begin="2.27s" fill="freeze"/><rect x="977.4" y="503" width="73.8" height="39" rx="19.5" fill="#EFF4FF" stroke="rgba(37,99,235,.25)" stroke-width="1"><animate attributeName="stroke-opacity" values="0.5;1;0.5" dur="4s" begin="2.27s" repeatCount="indefinite"/></rect><text x="1014.3" y="530" text-anchor="middle" font-family="ui-monospace,Menlo,Consolas,monospace" font-size="18" fill="#0F172A">Nmap</text></g><g opacity="0"><animate attributeName="opacity" values="0;1" dur="0.55s" begin="2.34s" fill="freeze"/><rect x="66" y="558" width="141.0" height="39" rx="19.5" fill="#EFF4FF" stroke="rgba(37,99,235,.25)" stroke-width="1"><animate attributeName="stroke-opacity" values="0.5;1;0.5" dur="5s" begin="2.34s" repeatCount="indefinite"/></rect><text x="136.5" y="585" text-anchor="middle" font-family="ui-monospace,Menlo,Consolas,monospace" font-size="18" fill="#0F172A">Burp Suite</text></g><g opacity="0"><animate attributeName="opacity" values="0;1" dur="0.55s" begin="2.41s" fill="freeze"/><rect x="225.0" y="558" width="62.599999999999994" height="39" rx="19.5" fill="#EFF4FF" stroke="rgba(37,99,235,.25)" stroke-width="1"><animate attributeName="stroke-opacity" values="0.5;1;0.5" dur="3s" begin="2.41s" repeatCount="indefinite"/></rect><text x="256.3" y="585" text-anchor="middle" font-family="ui-monospace,Menlo,Consolas,monospace" font-size="18" fill="#0F172A">n8n</text></g><g opacity="0"><animate attributeName="opacity" values="0;1" dur="0.55s" begin="2.48s" fill="freeze"/><rect x="305.6" y="558" width="62.599999999999994" height="39" rx="19.5" fill="#EFF4FF" stroke="rgba(37,99,235,.25)" stroke-width="1"><animate attributeName="stroke-opacity" values="0.5;1;0.5" dur="4s" begin="2.48s" repeatCount="indefinite"/></rect><text x="336.90000000000003" y="585" text-anchor="middle" font-family="ui-monospace,Menlo,Consolas,monospace" font-size="18" fill="#0F172A">Git</text></g><g opacity="0"><animate attributeName="opacity" values="0;1" dur="0.55s" begin="2.55s" fill="freeze"/><rect x="386.20000000000005" y="558" width="96.19999999999999" height="39" rx="19.5" fill="#EFF4FF" stroke="rgba(37,99,235,.25)" stroke-width="1"><animate attributeName="stroke-opacity" values="0.5;1;0.5" dur="5s" begin="2.55s" repeatCount="indefinite"/></rect><text x="434.30000000000007" y="585" text-anchor="middle" font-family="ui-monospace,Menlo,Consolas,monospace" font-size="18" fill="#0F172A">Docker</text></g><line x1="66" y1="643" x2="1114" y2="643" stroke="#E2E8F0" stroke-width="1" opacity="0"><animate attributeName="opacity" values="0;1" dur="0.55s" begin="3.1999999999999997s" fill="freeze"/></line><g opacity="0"><animate attributeName="opacity" values="0;1" dur="0.55s" begin="3.3499999999999996s" fill="freeze"/><rect x="66" y="667.52" width="34" height="34" rx="8.84" fill="#EFF4FF"/><g transform="translate(72.12,673.64) scale(1.36)"><path fill="#06B6D4" d="M8 0C3.58 0 0 3.58 0 8c0 3.54 2.29 6.53 5.47 7.59.4.07.55-.17.55-.38 0-.19-.01-.82-.01-1.49-2.01.37-2.53-.49-2.69-.94-.09-.23-.48-.94-.82-1.13 -.28-.15-.68-.52-.01-.53.63-.01 1.08.58 1.23.82.72 1.21 1.87.87 2.33.66 .07-.52.28-.87.51-1.07-1.78-.2-3.64-.89-3.64-3.95 0-.87.31-1.59.82-2.15 -.08-.2-.36-1.02.08-2.12 0 0 .67-.21 2.2.82.64-.18 1.32-.27 2-.27 .68 0 1.36.09 2 .27 1.53-1.04 2.2-.82 2.2-.82.44 1.1.16 1.92.08 2.12 .51.56.82 1.27.82 2.15 0 3.07-1.87 3.75-3.65 3.95.29.25.54.73.54 1.48 0 1.07-.01 1.93-.01 2.2 0 .21.15.46.55.38A8.01 8.01 0 0 0 16 8c0-4.42-3.58-8-8-8z"/></g><text x="114" y="692" font-family="ui-monospace,Menlo,Consolas,monospace" font-size="19.5" fill="#475569">zerotwo5</text></g><g opacity="0"><animate attributeName="opacity" values="0;1" dur="0.55s" begin="3.4799999999999995s" fill="freeze"/><rect x="249" y="667.52" width="34" height="34" rx="8.84" fill="#EFF4FF"/><g transform="translate(257.075,674.3199999999999) scale(0.03984375)"><path fill="#06B6D4" d="M100.3 448l-92.9 0 0-299.1 92.9 0 0 299.1zM53.8 108.1C24.1 108.1 0 83.5 0 53.8 0 39.5 5.7 25.9 15.8 15.8s23.8-15.8 38-15.8 27.9 5.7 38 15.8 15.8 23.8 15.8 38c0 29.7-24.1 54.3-53.8 54.3zM447.9 448l-92.7 0 0-145.6c0-34.7-.7-79.2-48.3-79.2-48.3 0-55.7 37.7-55.7 76.7l0 148.1-92.8 0 0-299.1 89.1 0 0 40.8 1.3 0c12.4-23.5 42.7-48.3 87.9-48.3 94 0 111.3 61.9 111.3 142.3l0 164.3-.1 0z"/></g><text x="297" y="692" font-family="ui-monospace,Menlo,Consolas,monospace" font-size="19.5" fill="#475569">pranto025</text></g><g opacity="0"><animate attributeName="opacity" values="0;1" dur="0.55s" begin="3.6099999999999994s" fill="freeze"/><rect x="443" y="667.52" width="34" height="34" rx="8.84" fill="#EFF4FF"/><g transform="translate(448.78,673.3) scale(0.935)"><path fill="#06B6D4" d="M11.944 0A12 12 0 0 0 0 12a12 12 0 0 0 12 12 12 12 0 0 0 12-12A12 12 0 0 0 12 0a12 12 0 0 0-.056 0zm4.962 7.224c.1-.002.321.023.465.14a.506.506 0 0 1 .171.325c.016.093.036.306.02.472-.18 1.898-.96 6.502-1.358 8.627-.168.9-.499 1.201-.82 1.23-.696.065-1.225-.46-1.9-.902-1.056-.693-1.653-1.124-2.678-1.8-1.184-.78-.417-1.21.258-1.91.177-.184 3.247-2.977 3.307-3.23.007-.032.014-.15-.056-.212s-.174-.041-.249-.024c-.106.024-1.793 1.14-5.061 3.345-.48.33-.913.49-1.302.48-.428-.008-1.252-.241-1.865-.44-.752-.245-1.349-.374-1.297-.789.027-.216.325-.437.893-.663 3.498-1.524 5.83-2.529 6.998-3.014 3.332-1.386 4.025-1.627 4.476-1.635z"/></g><text x="491" y="692" font-family="ui-monospace,Menlo,Consolas,monospace" font-size="19.5" fill="#475569">pranto025</text></g><g opacity="0"><animate attributeName="opacity" values="0;1" dur="0.55s" begin="3.7399999999999998s" fill="freeze"/><rect x="637" y="667.52" width="34" height="34" rx="8.84" fill="#EFF4FF"/><g transform="translate(643.12,673.64) scale(0.9066666666666667)"><path fill="#06B6D4" d="M.1025 7.3475c-.0681 0-.1022.0341-.1022.102v6.752c0 .0681.034.1022.1022.1022h.7049c.068 0 .1022-.034.1022-.1023v-1.481l.4187-.3985 1.5016 1.91c.041.0477.0884.0716.143.0716h.9091c.0476 0 .0748-.0135.0817-.0407.0135-.041.0066-.075-.0206-.1023l-1.9816-2.4618 1.9002-1.8384c.0204-.0205.0237-.051.01-.092-.0137-.0339-.0408-.051-.0816-.051h-.9398c-.0477 0-.0953.024-.143.0716L.9096 11.607V7.4496c0-.0679-.0342-.102-.1022-.102zm18.0417 0c-.068 0-.102.0341-.102.102v6.752c0 .0681.034.102.102.102h.705c.068 0 .102-.034.102-.102v-6.752c0-.068-.034-.102-.102-.102zM5.961 9.6254c-.5653 0-1.11.1806-1.6343.5415-.0545.0545-.0648.102-.0307.143l.3676.5208c.0272.0477.0717.0545.133.0204.3948-.2722.783-.4086 1.1644-.4086.2927 0 .5158.0886.669.2656.1532.1771.2197.3917.1992.6436-.6606.0681-1.1545.1495-1.4813.245-.8308.2383-1.2461.6913-1.2461 1.3586 0 .4222.1533.7695.4598 1.0419.3132.2654.6845.3982 1.1134.3982.4698 0 .8545-.1125 1.1542-.3372v.1432c0 .0682.0374.102.1123.102h.7048c.068 0 .102-.0338.102-.102V11.372c0-.6604-.2245-1.1406-.6739-1.4403-.3065-.2043-.6776-.3063-1.1134-.3063zm4.3225 0c-.6742 0-1.195.2622-1.5627.7865-.3133.4359-.4699.9671-.4699 1.5936 0 .6604.1634 1.2087.4903 1.6444.3744.4972.892.7455 1.5526.7455.5313 0 .9567-.1327 1.2768-.3982v.531c0 .858-.4122 1.287-1.236 1.287-.361 0-.732-.1907-1.1132-.572a.098.098 0 00-.0716-.0306c-.034 0-.0613.0102-.0817.0307l-.4802.48c-.0408.0613-.0375.1124.0103.1532.1361.1157.2554.2129.3576.2911.102.0783.1905.1413.2656.189.354.1975.7284.2961 1.1235.2961.6808 0 1.207-.1925 1.5781-.577.3711-.3848.5567-.9484.5567-1.6903V9.8196c0-.068-.034-.102-.102-.102h-.705c-.0682 0-.1021.034-.1021.102v.2043c-.3471-.2657-.7763-.3985-1.287-.3985zm4.8021 0c-.6742 0-1.195.2622-1.5627.7865-.3132.4359-.4699.9671-.4699 1.5936 0 .6604.1633 1.2087.4903 1.6444.3744.4972.892.7455 1.5526.7455.5311 0 .9566-.1327 1.2768-.3982v.531c0 .858-.4122 1.287-1.236 1.287-.361 0-.732-.1907-1.1133-.572a.098.098 0 00-.0716-.0306c-.034 0-.0612.0102-.0816.0307l-.48.48c-.0409.0613-.0376.1124.01.1532.1363.1157.2555.2129.3576.2911.1021.0783.1906.1413.2657.189.354.1975.7285.2961 1.1237.2961.6808 0 1.2068-.1925 1.5781-.577.371-.3848.5565-.9484.5565-1.6903V9.8196c0-.068-.034-.102-.102-.102h-.7049c-.0682 0-.1022.034-.1022.102v.2043c-.3474-.2657-.7763-.3985-1.287-.3985zm6.7457 0c-.6537 0-1.185.211-1.5936.6332-.4427.4632-.664 1.0283-.664 1.6956 0 .7083.225 1.2905.6743 1.7467.463.463 1.042.6945 1.7366.6945.6467 0 1.2154-.1838 1.7057-.5515.0545-.041.0545-.0884 0-.143l-.4802-.4903c-.041-.0409-.0919-.0409-.1533 0-.2998.2112-.6368.3167-1.0112.3167-.4222 0-.7729-.119-1.052-.3576-.2452-.2248-.3882-.5038-.429-.8375h3.3197c.0679 0 .1022-.0341.1022-.1023l.01-.2244c.0341-.6878-.1668-1.26-.6025-1.7162-.4224-.4426-.9432-.664-1.5627-.664zm-.0206.7865c.3268 0 .6062.1056.8377.3166.2452.211.371.4734.378.7865h-2.4618c.0613-.3269.2077-.5925.4392-.7968.2313-.2042.5004-.3063.8069-.3063zm-11.4249.102c.6196 0 1.0146.2181 1.1848.6538v1.6854c-.1702.4358-.5755.6538-1.2155.6538-.3133 0-.5687-.0986-.7661-.2963-.2656-.2518-.3983-.6538-.3983-1.2053 0-.9941.3984-1.4914 1.1951-1.4914zm4.802 0c.6196 0 1.0148.2181 1.1851.6538h-.0002v1.6854c-.1703.4358-.5755.6538-1.2155.6538-.3132 0-.5686-.0986-.7661-.2963-.2655-.2518-.3983-.6538-.3983-1.2053 0-.9941.3983-1.4914 1.195-1.4914zm-8.3586 1.6547v1.0215c-.286.286-.6675.412-1.1441.3779-.1703-.0135-.32-.0663-.4493-.1582-.1294-.0919-.2045-.2129-.2249-.3627-.0341-.2657.1158-.47.4495-.6129.2452-.1088.7013-.1974 1.3688-.2656z"/></g><text x="685" y="692" font-family="ui-monospace,Menlo,Consolas,monospace" font-size="19.5" fill="#475569">pranto025</text></g></g></g></svg>